<svg xmlns="http://www.w3.org/2000/svg" xmlns:xlink="http://www.w3.org/1999/xlink" width="512" zoomAndPan="magnify" viewBox="0 0 384 383.999986" height="512" preserveAspectRatio="xMidYMid meet" version="1.0"><defs><g/><clipPath id="071b434806"><rect x="0" width="311" y="0" height="270"/></clipPath></defs><rect x="-38.4" width="460.8" fill="#ffffff" y="-38.399999" height="460.799983" fill-opacity="1"/><rect x="-38.4" width="460.8" fill="#fef3e2" y="-38.399999" height="460.799983" fill-opacity="1"/><g transform="matrix(1, 0, 0, 1, 38, 57)"><g clip-path="url(#071b434806)"><g fill="#2a1810" fill-opacity="1"><g transform="translate(0.400004, 212.565416)"><g><path d="M 72.0625 3.375 C 67.632812 3.375 63.660156 2.957031 60.140625 2.125 C 56.617188 1.289062 53.550781 0.332031 50.9375 -0.75 C 48.332031 -1.84375 46.140625 -2.804688 44.359375 -3.640625 C 42.578125 -4.484375 41.179688 -4.90625 40.171875 -4.90625 C 38.785156 -4.90625 37.601562 -4.46875 36.625 -3.59375 C 35.644531 -2.71875 34.753906 -1.71875 33.953125 -0.59375 C 33.160156 0.53125 32.273438 1.523438 31.296875 2.390625 C 30.316406 3.265625 29.140625 3.703125 27.765625 3.703125 C 26.234375 3.703125 24.957031 3.226562 23.9375 2.28125 C 22.925781 1.34375 22.238281 -0.210938 21.875 -2.390625 L 14.484375 -37.5625 C 13.828125 -40.96875 15.203125 -43.21875 18.609375 -44.3125 C 22.023438 -45.539062 24.710938 -44.234375 26.671875 -40.390625 C 30.734375 -32.328125 35.101562 -25.9375 39.78125 -21.21875 C 44.46875 -16.507812 49.347656 -13.140625 54.421875 -11.109375 C 59.503906 -9.078125 64.695312 -8.0625 70 -8.0625 C 77.394531 -8.0625 83.21875 -9.984375 87.46875 -13.828125 C 91.71875 -17.671875 93.84375 -22.785156 93.84375 -29.171875 C 93.84375 -32.296875 93.347656 -35.179688 92.359375 -37.828125 C 91.378906 -40.472656 89.53125 -43.007812 86.8125 -45.4375 C 84.09375 -47.875 80.210938 -50.289062 75.171875 -52.6875 C 70.128906 -55.082031 63.613281 -57.585938 55.625 -60.203125 C 44.664062 -63.828125 35.847656 -67.960938 29.171875 -72.609375 C 22.492188 -77.253906 17.664062 -82.710938 14.6875 -88.984375 C 11.71875 -95.265625 10.234375 -102.539062 10.234375 -110.8125 C 10.234375 -119.664062 12.316406 -127.410156 16.484375 -134.046875 C 20.660156 -140.691406 26.539062 -145.882812 34.125 -149.625 C 41.707031 -153.363281 50.582031 -155.234375 60.75 -155.234375 C 65.675781 -155.234375 69.953125 -154.832031 73.578125 -154.03125 C 77.210938 -153.238281 80.335938 -152.296875 82.953125 -151.203125 C 85.566406 -150.117188 87.796875 -149.175781 89.640625 -148.375 C 91.492188 -147.570312 93.109375 -147.171875 94.484375 -147.171875 C 95.722656 -147.171875 96.703125 -147.585938 97.421875 -148.421875 C 98.148438 -149.265625 98.84375 -150.25 99.5 -151.375 C 100.15625 -152.5 100.9375 -153.476562 101.84375 -154.3125 C 102.75 -155.144531 103.960938 -155.5625 105.484375 -155.5625 C 107.148438 -155.5625 108.523438 -155.050781 109.609375 -154.03125 C 110.703125 -153.019531 111.648438 -151.097656 112.453125 -148.265625 L 122.6875 -112.890625 C 123.269531 -110.929688 123.195312 -109.207031 122.46875 -107.71875 C 121.738281 -106.226562 120.539062 -105.191406 118.875 -104.609375 C 115.394531 -103.453125 112.707031 -104.722656 110.8125 -108.421875 C 106.457031 -117.273438 101.722656 -124.296875 96.609375 -129.484375 C 91.492188 -134.671875 86.210938 -138.367188 80.765625 -140.578125 C 75.328125 -142.796875 69.816406 -143.90625 64.234375 -143.90625 C 59.296875 -143.90625 55.007812 -142.941406 51.375 -141.015625 C 47.75 -139.097656 44.957031 -136.429688 43 -133.015625 C 41.039062 -129.609375 40.0625 -125.617188 40.0625 -121.046875 C 40.0625 -118.003906 40.566406 -115.117188 41.578125 -112.390625 C 42.597656 -109.671875 44.429688 -107.023438 47.078125 -104.453125 C 49.734375 -101.878906 53.488281 -99.300781 58.34375 -96.71875 C 63.207031 -94.144531 69.488281 -91.441406 77.1875 -88.609375 C 88.425781 -84.546875 97.347656 -80.191406 103.953125 -75.546875 C 110.554688 -70.898438 115.3125 -65.671875 118.21875 -59.859375 C 121.125 -54.054688 122.578125 -47.347656 122.578125 -39.734375 C 122.578125 -33.785156 121.429688 -28.195312 119.140625 -22.96875 C 116.859375 -17.738281 113.554688 -13.144531 109.234375 -9.1875 C 104.921875 -5.238281 99.644531 -2.160156 93.40625 0.046875 C 87.164062 2.265625 80.050781 3.375 72.0625 3.375 Z M 72.0625 3.375 "/></g></g></g><g fill="#2a1810" fill-opacity="1"><g transform="translate(133.200633, 212.565416)"><g><path d="M 11.4375 -5.109375 C 11.4375 -7.941406 12.992188 -9.832031 16.109375 -10.78125 L 22.3125 -12.1875 C 25.945312 -13.207031 27.765625 -15.3125 27.765625 -18.5 L 27.765625 -133.890625 C 27.765625 -137.085938 25.945312 -139.191406 22.3125 -140.203125 L 16.109375 -141.625 C 12.992188 -142.570312 11.4375 -144.457031 11.4375 -147.28125 C 11.4375 -148.882812 11.976562 -150.140625 13.0625 -151.046875 C 14.15625 -151.953125 15.859375 -152.40625 18.171875 -152.40625 L 76.09375 -152.40625 C 89.59375 -152.40625 101.859375 -150.425781 112.890625 -146.46875 C 123.921875 -142.507812 133.410156 -136.921875 141.359375 -129.703125 C 149.304688 -122.484375 155.421875 -113.9375 159.703125 -104.0625 C 163.984375 -94.195312 166.125 -83.347656 166.125 -71.515625 C 166.125 -61.210938 164.304688 -51.707031 160.671875 -43 C 157.046875 -34.289062 151.785156 -26.722656 144.890625 -20.296875 C 137.992188 -13.878906 129.609375 -8.890625 119.734375 -5.328125 C 109.867188 -1.773438 98.660156 0 86.109375 0 L 18.171875 0 C 15.859375 0 14.15625 -0.453125 13.0625 -1.359375 C 11.976562 -2.265625 11.4375 -3.515625 11.4375 -5.109375 Z M 82.734375 -11.109375 C 92.453125 -11.109375 100.941406 -13.375 108.203125 -17.90625 C 115.460938 -22.445312 121.085938 -29.234375 125.078125 -38.265625 C 129.066406 -47.296875 131.0625 -58.597656 131.0625 -72.171875 C 131.0625 -82.765625 129.703125 -92.328125 126.984375 -100.859375 C 124.265625 -109.390625 120.34375 -116.664062 115.21875 -122.6875 C 110.101562 -128.707031 103.914062 -133.3125 96.65625 -136.5 C 89.40625 -139.695312 81.242188 -141.296875 72.171875 -141.296875 L 61.5 -141.296875 L 61.5 -21.34375 C 61.5 -17.78125 62.515625 -15.179688 64.546875 -13.546875 C 66.585938 -11.921875 69.601562 -11.109375 73.59375 -11.109375 Z M 82.734375 -11.109375 "/></g></g></g></g></g></svg>